<?xml version="1.0" encoding="UTF-8"?>
<svg version="1.1" xmlns="http://www.w3.org/2000/svg" width="301" height="195">
<path d="M0 0 C1 1 1 1 1.09765625 4.37890625 C1.09098369 5.77347077 1.07902532 7.16801743 1.0625 8.5625 C1.05798828 9.27341797 1.05347656 9.98433594 1.04882812 10.71679688 C1.03700864 12.47790013 1.01907263 14.23896036 1 16 C0.26394531 16.06058594 -0.47210938 16.12117188 -1.23046875 16.18359375 C-2.69419922 16.30927734 -2.69419922 16.30927734 -4.1875 16.4375 C-5.15042969 16.51871094 -6.11335938 16.59992187 -7.10546875 16.68359375 C-9.78649602 16.97666151 -12.3662986 17.42703754 -15 18 C-16.13032863 21.63251393 -16.14101588 25.0665433 -16.17578125 28.85546875 C-16.19899527 30.21420793 -16.22311323 31.57293191 -16.24804688 32.93164062 C-16.28297941 35.05324267 -16.31241588 37.17428946 -16.32592773 39.29614258 C-16.40788194 50.08257685 -17.32861007 58.8491482 -25 67 C-27.25 68.8125 -27.25 68.8125 -29 70 C-28.113125 70.474375 -27.22625 70.94875 -26.3125 71.4375 C-21.28675484 74.74829894 -18.85271104 80.44186687 -17 86 C-16.89487037 88.38251618 -16.84477053 90.76759781 -16.82421875 93.15234375 C-16.80102562 94.58269709 -16.77690849 96.01303569 -16.75195312 97.44335938 C-16.71681825 99.69272821 -16.68747586 101.94155199 -16.67407227 104.19116211 C-16.6585843 106.36638787 -16.61838406 108.54003581 -16.57421875 110.71484375 C-16.55963623 112.01542725 -16.54505371 113.31601074 -16.5300293 114.65600586 C-15.91891735 118.51155645 -15.10966789 119.71435174 -12 122 C-8.99991534 122.65754237 -8.99991534 122.65754237 -5.8125 122.6875 C-0.06944444 122.93055556 -0.06944444 122.93055556 1 124 C1.07271741 126.35313555 1.08370868 128.70833668 1.0625 131.0625 C1.05347656 132.35285156 1.04445312 133.64320313 1.03515625 134.97265625 C1.02355469 135.97167969 1.01195312 136.97070312 1 138 C-2.70806596 138.11674705 -6.4156554 138.18743274 -10.125 138.25 C-11.17171875 138.28351563 -12.2184375 138.31703125 -13.296875 138.3515625 C-19.56885234 138.43095462 -23.25107126 138.22975325 -28 134 C-33.86368909 127.86977959 -35.23002218 122.77489218 -35.30859375 114.40625 C-35.33374392 112.94921458 -35.35914209 111.49218342 -35.38476562 110.03515625 C-35.41350295 107.76417054 -35.43755564 105.49325843 -35.45629883 103.22216797 C-35.4780483 101.01232577 -35.51747577 98.80330462 -35.55859375 96.59375 C-35.57204834 95.28083984 -35.58550293 93.96792969 -35.59936523 92.61523438 C-36.11083718 87.99983123 -37.44351596 84.55648404 -40.75 81.25 C-43.70097932 79.61056704 -46.75442358 78.89064655 -50 78 C-50.24809955 75.3755252 -50.4741699 72.75232855 -50.6875 70.125 C-50.76033203 69.37863281 -50.83316406 68.63226563 -50.90820312 67.86328125 C-51.07421875 65.6953125 -51.07421875 65.6953125 -51 62 C-48 60 -48 60 -45.125 59.1875 C-41.40440963 57.77367566 -39.56743115 56.00756221 -37 53 C-35.81496177 49.44488532 -35.8563019 46.5563384 -35.82421875 42.8046875 C-35.80100074 41.35154833 -35.77688262 39.89842332 -35.75195312 38.4453125 C-35.7170246 36.16787506 -35.68759471 33.8909524 -35.67407227 31.61328125 C-35.54309658 13.13966482 -35.54309658 13.13966482 -29.35644531 6.140625 C-21.47482242 -1.60205135 -10.27431741 -0.52037179 0 0 Z " fill="#8E5EDD" transform="translate(106,30)"/>
<path d="M0 0 C9.54639849 0.11618335 15.52870111 0.64123186 22.7734375 7.140625 C26.55231521 11.62056147 27.87056022 15.78250009 27.9765625 21.58203125 C28.0075 22.78537109 28.0384375 23.98871094 28.0703125 25.22851562 C28.08835938 26.47310547 28.10640625 27.71769531 28.125 29 C27.35711341 44.01227514 27.35711341 44.01227514 32.5 57.1875 C35.47292952 58.49178702 38.35206626 59.32067767 41.5 60.1875 C41.5 66.1275 41.5 72.0675 41.5 78.1875 C38.86 79.1775 36.22 80.1675 33.5 81.1875 C29.33900525 85.34849475 29.36912938 88.02141937 29.25390625 93.69140625 C29.22103516 94.99013672 29.18816406 96.28886719 29.15429688 97.62695312 C29.10726464 99.67809477 29.06290224 101.72922071 29.02319336 103.78051758 C28.57466847 125.89789784 28.57466847 125.89789784 22.5 133.1875 C18.214429 136.96288397 15.9400726 138.31629161 10.2734375 138.28515625 C9.2421875 138.28193359 8.2109375 138.27871094 7.1484375 138.27539062 C6.06820312 138.26701172 4.98796875 138.25863281 3.875 138.25 C2.24304688 138.24323242 2.24304688 138.24323242 0.578125 138.23632812 C-2.11463789 138.22451776 -4.80729188 138.20804778 -7.5 138.1875 C-7.52685412 135.87506208 -7.54632841 133.5625373 -7.5625 131.25 C-7.57410156 129.96222656 -7.58570313 128.67445313 -7.59765625 127.34765625 C-7.5 124.1875 -7.5 124.1875 -6.5 123.1875 C-3.75596619 122.94257797 -1.0130033 122.80364703 1.73828125 122.6640625 C4.98311994 122.10413277 6.21241663 121.55299055 8.5 119.1875 C9.08208075 115.85015232 9.08208075 115.85015232 8.96875 111.9921875 C8.97579956 111.28530792 8.98284912 110.57842834 8.9901123 109.85012817 C9.01950771 106.83348647 9.00309691 103.81749355 8.99072266 100.80078125 C8.98003034 90.99806374 9.05679729 82.75956519 15.421875 74.77734375 C16.02515625 74.23207031 16.6284375 73.68679687 17.25 73.125 C17.86359375 72.55652344 18.4771875 71.98804687 19.109375 71.40234375 C19.56828125 71.00144531 20.0271875 70.60054688 20.5 70.1875 C20.11328125 69.76339844 19.7265625 69.33929688 19.328125 68.90234375 C13.00337991 61.77917787 9.44443231 55.7283483 9.21875 46 C9.19113586 44.95162964 9.19113586 44.95162964 9.16296387 43.88208008 C9.08443124 40.89517228 9.0166088 37.90804244 8.94775391 34.92089844 C8.89593554 32.73882246 8.83872225 30.55693319 8.78125 28.375 C8.75095703 27.06917969 8.72066406 25.76335938 8.68945312 24.41796875 C8.63969721 21.17301731 8.63969721 21.17301731 7.5 18.1875 C0.075 17.1975 0.075 17.1975 -7.5 16.1875 C-7.520625 13.733125 -7.54125 11.27875 -7.5625 8.75 C-7.571604 7.97599854 -7.58070801 7.20199707 -7.59008789 6.40454102 C-7.59724913 4.66528283 -7.55024702 2.92604696 -7.5 1.1875 C-5.6206684 -0.6918316 -2.50683616 0.01339122 0 0 Z " fill="#03B69A" transform="translate(202.5,29.8125)"/>
<path d="M0 0 C6.27 0 12.54 0 19 0 C18.33257461 4.00455231 17.84174548 6.83810931 16.4609375 10.46484375 C16.13552979 11.32706543 15.81012207 12.18928711 15.47485352 13.07763672 C15.11190186 14.0213916 14.7489502 14.96514648 14.375 15.9375 C13.98820068 16.95602051 13.60140137 17.97454102 13.20288086 19.02392578 C12.06972089 22.00077232 10.93063581 24.97527043 9.78814697 27.94854736 C8.94684732 30.1383501 8.10688331 32.32866218 7.26708984 34.51904297 C3.76251151 43.65731102 0.24787161 52.79167761 -3.27281189 61.92375183 C-5.22379961 66.98452912 -7.17214525 72.04630973 -9.1171875 77.109375 C-9.57810791 78.30900879 -10.03902832 79.50864258 -10.51391602 80.74462891 C-11.35310462 82.92913828 -12.19214493 85.11370462 -13.03100586 87.29833984 C-13.39846924 88.25434082 -13.76593262 89.2103418 -14.14453125 90.1953125 C-14.61403198 91.41758545 -14.61403198 91.41758545 -15.09301758 92.66455078 C-15.39232178 93.43524902 -15.69162598 94.20594727 -16 95 C-16.34764404 95.90347168 -16.69528809 96.80694336 -17.0534668 97.73779297 C-18 100 -18 100 -19 101 C-20.41570123 101.08651611 -21.835595 101.10704904 -23.25390625 101.09765625 C-24.10791016 101.09443359 -24.96191406 101.09121094 -25.84179688 101.08789062 C-26.73962891 101.07951172 -27.63746094 101.07113281 -28.5625 101.0625 C-29.46419922 101.05798828 -30.36589844 101.05347656 -31.29492188 101.04882812 C-33.53001314 101.03700225 -35.76497437 101.0205222 -38 101 C-37.38712249 97.57080782 -36.52169066 94.4419515 -35.28857422 91.18603516 C-34.93613647 90.24986862 -34.58369873 89.31370209 -34.22058105 88.34916687 C-33.64346375 86.83441521 -33.64346375 86.83441521 -33.0546875 85.2890625 C-32.65237915 84.22416092 -32.2500708 83.15925934 -31.83557129 82.06208801 C-30.51934309 78.58154367 -29.19736861 75.10321557 -27.875 71.625 C-26.96805959 69.23192881 -26.06132257 66.83878052 -25.15478516 64.44555664 C-22.44371848 57.29429284 -19.72368108 50.14646782 -17 43 C-16.5978125 41.94460022 -16.195625 40.88920044 -15.78125 39.80181885 C-13.31936532 33.34440582 -10.85013952 26.88984302 -8.375 20.4375 C-8.06012634 19.6152594 -7.74525269 18.7930188 -7.4208374 17.94586182 C-6.54063422 15.64922772 -5.65758561 13.35371156 -4.7734375 11.05859375 C-4.51912964 10.39438919 -4.26482178 9.73018463 -4.00280762 9.04585266 C-2.79830937 5.9298781 -1.49780854 2.99561708 0 0 Z " fill="#03B59A" transform="translate(165,53)"/>
<path d="M0 0 C3 2 3 2 4 5 C4.10512963 7.38251618 4.15522947 9.76759781 4.17578125 12.15234375 C4.19897438 13.58269709 4.22309151 15.01303569 4.24804688 16.44335938 C4.28318175 18.69272821 4.31252414 20.94155199 4.32592773 23.19116211 C4.3414157 25.36638787 4.38161594 27.54003581 4.42578125 29.71484375 C4.44036377 31.01542725 4.45494629 32.31601074 4.4699707 33.65600586 C5.08108265 37.51155645 5.89033211 38.71435174 9 41 C12.00008466 41.65754237 12.00008466 41.65754237 15.1875 41.6875 C20.93055556 41.93055556 20.93055556 41.93055556 22 43 C22.14426614 47.66845228 22.04208415 52.32865953 22 57 C15.73 57 9.46 57 3 57 C3 56.67 3 56.34 3 56 C8.61 56 14.22 56 20 56 C20 52.37 20 48.74 20 45 C17.463125 44.87625 17.463125 44.87625 14.875 44.75 C9.7027435 44.29009575 6.90444926 43.39070594 3 40 C1.52149794 37.04299587 1.7820791 34.00773471 1.71875 30.76171875 C1.69113586 29.68504692 1.69113586 29.68504692 1.66296387 28.58662415 C1.60416759 26.28700012 1.55141097 23.98730026 1.5 21.6875 C1.43208646 18.67042527 1.35831712 15.65357187 1.28125 12.63671875 C1.26767456 11.94696457 1.25409912 11.25721039 1.2401123 10.54655457 C1.14746675 6.92302508 0.8415474 3.52845152 0 0 Z " fill="#8358C9" transform="translate(85,111)"/>
<path d="M0 0 C0.33 0.99 0.66 1.98 1 3 C-2.85145043 4.92572521 -7.80043252 4.04883218 -12 4 C-12 7.96 -12 11.92 -12 16 C-6.72 16 -1.44 16 4 16 C4 16.33 4 16.66 4 17 C-1.94 17 -7.88 17 -14 17 C-14.09765625 6.16015625 -14.09765625 6.16015625 -14 3 C-12.28132657 1.28132657 -9.90786781 1.67079401 -7.5625 1.5 C-3.63565085 1.28580817 -3.63565085 1.28580817 0 0 Z " fill="#05A582" transform="translate(209,151)"/>
<path d="M0 0 C6.27 0 12.54 0 19 0 C18.27365611 4.35806333 17.46167915 7.90729837 16 12 C15.34 12 14.68 12 14 12 C14.51207144 8.24480943 15.2175082 5.33311475 17 2 C14.72886197 2.14100857 12.45809275 2.28796755 10.1875 2.4375 C8.92292969 2.51871094 7.65835938 2.59992187 6.35546875 2.68359375 C3.00818107 2.87184547 3.00818107 2.87184547 0 4 C0 2.68 0 1.36 0 0 Z " fill="#0DAC8C" transform="translate(165,53)"/>
<path d="M0 0 C0.33 0 0.66 0 1 0 C1.05787784 3.62493334 1.0935542 7.24974857 1.125 10.875 C1.14175781 11.90753906 1.15851563 12.94007813 1.17578125 14.00390625 C1.18222656 14.99003906 1.18867188 15.97617188 1.1953125 16.9921875 C1.20578613 17.90339355 1.21625977 18.81459961 1.22705078 19.75341797 C1 22 1 22 -1 24 C-1.69748583 25.31747324 -2.36959957 26.64914193 -3 28 C-3.66 28 -4.32 28 -5 28 C-6.125 23.25 -6.125 23.25 -5 21 C-4.34 21 -3.68 21 -3 21 C-2.01 14.07 -1.02 7.14 0 0 Z " fill="#59C9B7" transform="translate(230,125)"/>
<path d="M0 0 C0 4.62 0 9.24 0 14 C-6.27 14 -12.54 14 -19 14 C-19 13.67 -19 13.34 -19 13 C-13.39 13 -7.78 13 -2 13 C-2 9.37 -2 5.74 -2 2 C-5.63 1.67 -9.26 1.34 -13 1 C-13 0.67 -13 0.34 -13 0 C-11.20909747 -0.19466332 -9.41723495 -0.38051213 -7.625 -0.5625 C-6.12839844 -0.71912109 -6.12839844 -0.71912109 -4.6015625 -0.87890625 C-2 -1 -2 -1 0 0 Z " fill="#784FB1" transform="translate(107,154)"/>
<path d="M0 0 C0.33 0 0.66 0 1 0 C1.51020201 6.91607163 1.16419979 12.26944983 -3 18 C-5.69278616 20.82637085 -8.24930156 22.74976719 -12 24 C-12.66 23.34 -13.32 22.68 -14 22 C-11.0173094 20.47551369 -8.181798 19.06059933 -5 18 C-4.04007394 16.21205433 -4.04007394 16.21205433 -3.4375 14 C-3.19257813 13.19691406 -2.94765625 12.39382812 -2.6953125 11.56640625 C-1.65820708 7.7384385 -0.78122626 3.88774951 0 0 Z " fill="#0B9A7F" transform="translate(229,144)"/>
<path d="M0 0 C0.66 0.66 1.32 1.32 2 2 C4.54535141 2.19849071 6.95716759 2.27851775 9.5 2.25 C10.53447266 2.26160156 10.53447266 2.26160156 11.58984375 2.2734375 C15.75214386 2.3761305 15.75214386 2.3761305 19 0 C18.67 1.65 18.34 3.3 18 5 C11.73 5 5.46 5 -1 5 C-0.67 3.35 -0.34 1.7 0 0 Z " fill="#0AAC8F" transform="translate(128,149)"/>
<path d="M0 0 C2.47293298 3.70939946 2.09715626 6.26146428 1.75 10.5 C1.71003906 11.17675781 1.67007813 11.85351562 1.62890625 12.55078125 C1.36681223 16.14217768 1.03810313 17.9428453 -1 21 C-1.02710123 18.4374282 -1.04688771 15.87514635 -1.0625 13.3125 C-1.07087891 12.59126953 -1.07925781 11.87003906 -1.08789062 11.12695312 C-1.10543632 7.28444618 -0.93524221 3.73360474 0 0 Z " fill="#0E9F86" transform="translate(229,117)"/>
<path d="M0 0 C0.33 0 0.66 0 1 0 C0.42934122 6.41991126 -1.67344909 12.01589463 -4 18 C-4.66 17.67 -5.32 17.34 -6 17 C-4.33846988 11.14340094 -2.52958084 5.5409866 0 0 Z " fill="#0CAC8E" transform="translate(173,78)"/>
<path d="M0 0 C0.66 0 1.32 0 2 0 C2.49940808 6.11774896 1.24900602 9.02495953 -2 14 C-2.33 14 -2.66 14 -3 14 C-3.40652968 8.57960425 -2.03993514 4.92984325 0 0 Z " fill="#09AB8D" transform="translate(161,62)"/>
<path d="M0 0 C0.99 0.33 1.98 0.66 3 1 C3.33 2.98 3.66 4.96 4 7 C2.02 7.99 2.02 7.99 0 9 C-0.99 8.34 -1.98 7.68 -3 7 C-2.01 4.69 -1.02 2.38 0 0 Z " fill="#9868E0" transform="translate(74,40)"/>
<path d="M0 0 C0.33 0.99 0.66 1.98 1 3 C-1.64458379 4.32229189 -3.67761301 4.09677194 -6.625 4.0625 C-7.62789062 4.05347656 -8.63078125 4.04445312 -9.6640625 4.03515625 C-10.43492187 4.02355469 -11.20578125 4.01195312 -12 4 C-12.33 3.34 -12.66 2.68 -13 2 C-12.22914063 1.93941406 -11.45828125 1.87882813 -10.6640625 1.81640625 C-9.15972656 1.69072266 -9.15972656 1.69072266 -7.625 1.5625 C-6.62726563 1.48128906 -5.62953125 1.40007812 -4.6015625 1.31640625 C-2.02072387 1.15034374 -2.02072387 1.15034374 0 0 Z " fill="#0EA287" transform="translate(209,151)"/>
<path d="M0 0 C0 0.99 0 1.98 0 3 C-0.66 3 -1.32 3 -2 3 C-2 4.98 -2 6.96 -2 9 C-2.99 9 -3.98 9 -5 9 C-5.1875 5.625 -5.1875 5.625 -5 2 C-2 0 -2 0 0 0 Z " fill="#A485D8" transform="translate(60,90)"/>
<path d="M0 0 C0.53625 0.7425 1.0725 1.485 1.625 2.25 C4.16926068 5.19598605 6.70028406 6.96400506 10 9 C10.99 9.66 11.98 10.32 13 11 C7.42445477 10.77697819 4.84080855 9.50150006 1.06640625 5.66796875 C0 4 0 4 0 0 Z " fill="#8358CA" transform="translate(74,156)"/>
<path d="M0 0 C0.66 0 1.32 0 2 0 C2 0.66 2 1.32 2 2 C2.928125 2.37125 2.928125 2.37125 3.875 2.75 C6.39525827 4.23250486 7.01231659 5.28387064 8 8 C8 8.99 8 9.98 8 11 C7.34 11 6.68 11 6 11 C5.566875 10.113125 5.13375 9.22625 4.6875 8.3125 C3.23215183 5.45570545 1.68372526 2.72603137 0 0 Z " fill="#8458CC" transform="translate(64,108)"/>
<path d="M0 0 C4.455 2.97 4.455 2.97 9 6 C8.67 6.99 8.34 7.98 8 9 C5.03 7.02 2.06 5.04 -1 3 C-0.67 2.01 -0.34 1.02 0 0 Z " fill="#7A56B8" transform="translate(74,98)"/>
<path d="M0 0 C0.33 0 0.66 0 1 0 C1.3690205 10.55808656 1.3690205 10.55808656 -1 15 C-1.33 15 -1.66 15 -2 15 C-1.03644647 4.44191344 -1.03644647 4.44191344 0 0 Z " fill="#03A688" transform="translate(229,144)"/>
<path d="M0 0 C5.26053037 -0.31563182 8.44573816 0.33409063 13 3 C13 3.66 13 4.32 13 5 C8.62297367 3.77443263 4.30322683 2.46939453 0 1 C0 0.67 0 0.34 0 0 Z " fill="#0CA98C" transform="translate(199,44)"/>
<path d="M0 0 C0.99 0.33 1.98 0.66 3 1 C2.01 2.485 2.01 2.485 1 4 C0.34 4 -0.32 4 -1 4 C-1.66 5.32 -2.32 6.64 -3 8 C-3.75 6.25 -3.75 6.25 -4 4 C-2.0625 1.75 -2.0625 1.75 0 0 Z " fill="#8359CA" transform="translate(79,34)"/>
<path d="M0 0 C0.66 0.66 1.32 1.32 2 2 C1.01 4.31 0.02 6.62 -1 9 C-1.66 9 -2.32 9 -3 9 C-3 7.35 -3 5.7 -3 4 C-2.34 4 -1.68 4 -1 4 C-0.67 2.68 -0.34 1.36 0 0 Z " fill="#0CA88A" transform="translate(177,68)"/>
<path d="M0 0 C2.475 0.99 2.475 0.99 5 2 C4.34 3.32 3.68 4.64 3 6 C1.68 5.67 0.36 5.34 -1 5 C-0.67 3.35 -0.34 1.7 0 0 Z " fill="#1DB89B" transform="translate(223,96)"/>
<path d="M0 0 C0.33 0.66 0.66 1.32 1 2 C1.66 2 2.32 2 3 2 C3.28875 2.639375 3.5775 3.27875 3.875 3.9375 C4.82823451 6.15206079 4.82823451 6.15206079 7 7 C7 7.66 7 8.32 7 9 C2.79373966 7.49776416 1.26099979 4.71449966 -1 1 C-0.67 0.67 -0.34 0.34 0 0 Z " fill="#06AA88" transform="translate(215,87)"/>
<path d="M0 0 C0.66 0 1.32 0 2 0 C2.66 2.97 3.32 5.94 4 9 C3.01 9 2.02 9 1 9 C-0.4783226 6.04335481 -0.06032783 3.25770263 0 0 Z " fill="#18937B" transform="translate(229,76)"/>
</svg>
